<?xml version="1.0" encoding="UTF-8" standalone="no"?>
<!DOCTYPE svg PUBLIC "-//W3C//DTD SVG 1.1//EN" "http://www.w3.org/Graphics/SVG/1.1/DTD/svg11.dtd">
<svg width="100%" height="100%" viewBox="0 0 600 152" version="1.1" xmlns="http://www.w3.org/2000/svg" xmlns:xlink="http://www.w3.org/1999/xlink" xml:space="preserve" xmlns:serif="http://www.serif.com/" style="fill-rule:evenodd;clip-rule:evenodd;stroke-linejoin:round;stroke-miterlimit:2;">
    <g transform="matrix(0.1,0,0,-0.1,0,152)">
        <path d="M615,1434C460,1409 304,1307 222,1177C157,1074 145,1030 145,905C146,803 148,790 177,728C195,690 211,660 213,660C216,660 212,684 204,713C160,877 220,1064 355,1187C577,1390 916,1391 1134,1190C1204,1125 1195,1150 1116,1237C1046,1314 946,1381 860,1409C796,1431 673,1443 615,1434Z" style="fill:rgb(0,106,39);fill-rule:nonzero;"/>
        <g transform="matrix(10.3213,0,0,-10.3213,-301.111,1607.7)">
            <circle cx="105.864" cy="47.764" r="7.852" style="fill:rgb(0,51,145);"/>
        </g>
        <g transform="matrix(10.3213,0,0,-10.3213,-535.502,1592.99)">
            <circle cx="105.864" cy="47.764" r="7.852" style="fill:rgb(0,51,145);"/>
        </g>
        <path d="M535,974C513,966 481,945 463,928C404,871 400,852 400,640L400,477.157C400,470.485 402.65,464.086 407.368,459.368C412.086,454.65 418.485,452 425.156,452L450.407,452C463.966,452 475.085,462.746 475.549,476.297C476.521,504.737 478,548 478,548C480,627 483,640 498,640C531,640 615,687 647,723C664,742 683,775 690,795C706,843 699,928 676,963C661,985 651,990 616,989C594,989 557,982 535,974Z" style="fill:rgb(0,51,145);fill-rule:nonzero;"/>
        <path d="M716,938C743,834 728,765 664,699C633,667 574,634 517,616C503,612 502.067,601.173 502,578L505,545L685,545C784,545 882,549 903,553L940,561L940,689C940,759 935,832 929,851C905,924 809,990 729,990L702,990L716,938Z" style="fill:rgb(0,51,145);fill-rule:nonzero;"/>
        <path d="M1436,850C1274,809 1158,671 1124,478C1083,250 1195,110 1416,110C1535,110 1614,144 1690,226C1729,268 1782.47,371 1782.47,400C1733.8,399.125 1580,400 1580,400L1560,361C1532,305 1496,280 1443,280C1388,280 1365,292 1345,330C1302,414 1362,635 1440,675C1509,711 1581,681 1600,609L1611,570L1812,570L1805,628C1792,733 1747,801 1667,835C1620,854 1489,863 1436,850Z" style="fill:rgb(0,106,39);fill-rule:nonzero;"/>
        <path d="M5654,723C5645,658 5635,603 5633,601C5631,598 5620,606 5607,618C5540,681 5437,671 5350,593C5291,540 5254,465 5241,369C5224,243 5249,168 5320,134C5400,95 5504,111 5554,171C5568,187 5580,200 5582,200C5584,200 5584,184 5582,165L5578,130L5745,130L5799,458C5828,638 5855,797 5857,813L5863,840L5767,840L5672,840L5654,723ZM5575,485C5627,433 5596,297 5525,263C5491,247 5489,247 5462,267C5391,320 5449,509 5538,510C5545,510 5562,499 5575,485Z" style="fill:rgb(0,106,39);fill-rule:nonzero;"/>
        <path d="M2073,650C2003,636 1942,602 1915,563C1891.63,528.473 1890.74,526.41 1886.01,493.34C1905.1,492.269 2028.46,492.018 2055.92,493.34C2066.44,497.019 2074.57,505.565 2084,515C2123,554 2210,545 2210,501C2210,471 2187,460 2098,444C1881,405 1814.75,358.889 1820,235C1822.58,174 1842.55,137.54 1878.69,121.25C1949.69,89.25 2045,107 2122,156L2160,180L2160,155L2155.1,109.122L2255.1,109.122C2350.1,109.122 2310.69,109.843 2341.78,108.77C2343.26,118.066 2333.68,126.608 2334.96,134.591C2346.33,205.617 2351.22,232.337 2371,351C2399,525 2400,537 2385,576C2369,619 2350,632 2285,649C2239,661 2134,662 2073,650ZM2149.51,293C2102.16,220.305 2006.52,194.984 1990.59,270.709C1982.07,311.209 2037.54,330.024 2093.67,346.938C2121.73,355.394 2165.65,368.739 2174.29,367.105C2171.33,344.43 2157.51,309 2149.51,293Z" style="fill:rgb(0,106,39);fill-rule:nonzero;"/>
        <path d="M2677,650C2570,623 2508,558 2507,473C2506,388 2529,366 2666,330C2709,318 2750,304 2757,298C2790,271 2752,220 2698,220C2669,220 2640.32,243.002 2640,266C2639.77,282.417 2638.16,279.097 2550,280L2460,280L2460,250C2460,147 2597,88 2762,119C2877,142 2948,202 2958,286C2969,391 2946,412 2758,464C2717,476 2699,486 2694,502C2679,550 2764,569 2798,525C2816,502 2824,500 2900,500L2983,500L2977,535C2970,580 2943,615 2901,636C2861,655 2731,663 2677,650Z" style="fill:rgb(0,106,39);fill-rule:nonzero;"/>
        <path d="M3275,646C3210,625 3176,604 3131,555C3065,483 3045,431 3045,329C3045,251 3048,240 3074,202C3118,138 3175,115 3285,115C3399,116 3461,141 3525,212C3550,240 3575,279.945 3570,280C3556.33,280.151 3423.73,279.684 3400.63,280C3389.11,271.358 3360.39,230.441 3311,230C3281,229.732 3223.69,249.992 3224,340C3245.89,341.656 3239,340 3408,340L3598,340L3605,371C3613,408 3603,482 3584,530C3540,635 3403,687 3275,646ZM3394,518C3408,505 3422,483 3426,468L3431.45,447.183L3340.45,447.183C3264.45,447.183 3294.09,446.858 3249.45,447.183C3249.45,473.183 3269,509 3298,524C3337,545 3365,543 3394,518Z" style="fill:rgb(0,106,39);fill-rule:nonzero;"/>
        <g transform="matrix(1,0,0,1,1568.76,0)">
            <path d="M3275,646C3210,625 3176,604 3131,555C3065,483 3045,431 3045,329C3045,251 3048,240 3074,202C3118,138 3175,115 3285,115C3399,116 3461,141 3525,212C3550,240 3575,279.945 3570,280C3556.33,280.151 3423.73,279.684 3400.63,280C3389.11,271.358 3360.39,230.441 3311,230C3281,229.732 3223.69,249.992 3224,340C3245.89,341.656 3239,340 3408,340L3598,340L3605,371C3613,408 3603,482 3584,530C3540,635 3403,687 3275,646ZM3394,518C3408,505 3422,483 3426,468L3431.45,447.183L3340.45,447.183C3264.45,447.183 3294.09,446.858 3249.45,447.183C3249.45,473.183 3269,509 3298,524C3337,545 3365,543 3394,518Z" style="fill:rgb(0,106,39);fill-rule:nonzero;"/>
        </g>
        <path d="M3990,640C3965,628 3932,607 3917,592L3889,565L3895,605L3902,645L3816,645C3748,645 3729,642 3726,630C3723,622 3712,552 3700,475C3688,398 3672,302 3664,261C3656,221 3650,175 3650,159L3650,130L3740,130C3825,130 3830,131 3835,152C3837,165 3849,231 3860,299C3871,367 3888,436 3896,452C3914,487 3949,505 3984,496C4019,487 4026,453 4012,366C4005,327 3994,258 3986,213L3973,130L4067,130C4133,130 4162,134 4164,143C4166,149 4177,218 4190,295C4219,476 4238,509 4310,498C4359,491 4359,477 4316,213L4303,130L4396,130C4485,130 4490,131 4495,153C4508,213 4540,423 4545,480C4554,592 4520,644 4428,656C4364,665 4300,646 4250,603C4227,583 4208,569 4207,571C4206,573 4200,584 4194,594C4161,655 4067,676 3990,640Z" style="fill:rgb(0,106,39);fill-rule:nonzero;"/>
        <path d="M869.905,519.871C868.37,505.021 870,475 870,349L870,202.754C870,196.719 872.397,190.931 876.664,186.664C880.931,182.397 886.719,180 892.753,180L917.247,180C929.813,180 940,190.187 940,202.753L940,530C940,530 875.905,522.871 869.905,519.871Z" style="fill:rgb(0,51,145);fill-rule:nonzero;"/>
        <g transform="matrix(1.09841,-1.20513e-17,-1.20513e-17,1,-49.4001,0)">
            <path d="M502,323C502,323 503.876,199.184 504.661,147.375C504.849,134.958 514.067,125 525.373,125L544.285,125C555.726,125 565,135.187 565,147.753L565,515L505.819,520.735L502,323Z" style="fill:rgb(0,51,145);fill-rule:nonzero;"/>
        </g>
        <path d="M630,300L630,112.754C630,106.719 632.397,100.931 636.664,96.664C640.931,92.397 646.719,90 652.753,90L677.247,90C683.281,90 689.069,92.397 693.336,96.664C697.603,100.931 700,106.719 700,112.754L700,510L665,510L630,510L630,300Z" style="fill:rgb(0,51,145);fill-rule:nonzero;"/>
        <g transform="matrix(1.11809,-1.46699e-17,-1.46699e-17,0.998299,-91.3214,0.867437)">
            <path d="M752,308C752,308 753.888,180.216 754.669,127.415C754.853,114.976 763.908,105 775.016,105L794.779,105C805.968,105 815.058,115.116 815.129,127.647C815.43,180.456 816.152,307.31 816.152,307.31L820,510L785,510L750,510L752,308Z" style="fill:rgb(0,51,145);fill-rule:nonzero;"/>
        </g>
    </g>
</svg>
