<?xml version="1.0" encoding="UTF-8" standalone="no"?>
<!DOCTYPE svg PUBLIC "-//W3C//DTD SVG 1.1//EN" "http://www.w3.org/Graphics/SVG/1.1/DTD/svg11.dtd">
<svg width="100%" height="100%" viewBox="0 0 152 152" version="1.1" xmlns="http://www.w3.org/2000/svg" xmlns:xlink="http://www.w3.org/1999/xlink" xml:space="preserve" xmlns:serif="http://www.serif.com/" style="fill-rule:evenodd;clip-rule:evenodd;stroke-linejoin:round;stroke-miterlimit:2;">
    <g transform="matrix(0.1,0,0,-0.1,0,152)">
        <g transform="matrix(1,0,0,1,96.8336,-3.50569)">
            <path d="M615,1434C460,1409 304,1307 222,1177C157,1074 145,1030 145,905C146,803 148,790 177,728C195,690 211,660 213,660C216,660 212,684 204,713C160,877 220,1064 355,1187C577,1390 916,1391 1134,1190C1204,1125 1195,1150 1116,1237C1046,1314 946,1381 860,1409C796,1431 673,1443 615,1434Z" style="fill:rgb(0,106,39);fill-rule:nonzero;"/>
        </g>
        <g transform="matrix(10.3213,0,0,-10.3213,-204.277,1604.19)">
            <circle cx="105.864" cy="47.764" r="7.852" style="fill:rgb(0,51,145);"/>
        </g>
        <g transform="matrix(10.3213,0,0,-10.3213,-438.668,1589.48)">
            <circle cx="105.864" cy="47.764" r="7.852" style="fill:rgb(0,51,145);"/>
        </g>
        <g transform="matrix(1,0,0,1,96.8336,-3.50569)">
            <path d="M535,974C513,966 481,945 463,928C404,871 400,852 400,640L400,477.157C400,470.485 402.65,464.086 407.368,459.368C412.086,454.65 418.485,452 425.156,452L450.407,452C463.966,452 475.085,462.746 475.549,476.297C476.521,504.737 478,548 478,548C480,627 483,640 498,640C531,640 615,687 647,723C664,742 683,775 690,795C706,843 699,928 676,963C661,985 651,990 616,989C594,989 557,982 535,974Z" style="fill:rgb(0,51,145);fill-rule:nonzero;"/>
        </g>
        <g transform="matrix(1,0,0,1,96.8336,-3.50569)">
            <path d="M716,938C743,834 728,765 664,699C633,667 574,634 517,616C503,612 502.067,601.173 502,578L505,545L685,545C784,545 882,549 903,553L940,561L940,689C940,759 935,832 929,851C905,924 809,990 729,990L702,990L716,938Z" style="fill:rgb(0,51,145);fill-rule:nonzero;"/>
        </g>
        <g transform="matrix(1,0,0,1,96.8336,-3.50569)">
            <path d="M869.905,519.871C868.37,505.021 870,475 870,349L870,202.754C870,196.719 872.397,190.931 876.664,186.664C880.931,182.397 886.719,180 892.753,180L917.247,180C929.813,180 940,190.187 940,202.753L940,530C940,530 875.905,522.871 869.905,519.871Z" style="fill:rgb(0,51,145);fill-rule:nonzero;"/>
        </g>
        <g transform="matrix(1.09841,-1.20513e-17,-1.20513e-17,1,47.4335,-3.50569)">
            <path d="M502,323C502,323 503.876,199.184 504.661,147.375C504.849,134.958 514.067,125 525.373,125L544.285,125C555.726,125 565,135.187 565,147.753L565,515L505.819,520.735L502,323Z" style="fill:rgb(0,51,145);fill-rule:nonzero;"/>
        </g>
        <g transform="matrix(1,0,0,1,96.8336,-3.50569)">
            <path d="M630,510L630,112.754C630,106.719 632.397,100.931 636.664,96.664C640.931,92.397 646.719,90 652.753,90L677.247,90C683.281,90 689.069,92.397 693.336,96.664C697.603,100.931 700,106.719 700,112.754L700,510L630,510Z" style="fill:rgb(0,51,145);fill-rule:nonzero;"/>
        </g>
        <g transform="matrix(1.11809,-1.46699e-17,-1.46699e-17,0.998299,5.51218,-2.63826)">
            <path d="M752,308C752,308 753.888,180.216 754.669,127.415C754.853,114.976 763.908,105 775.016,105L794.779,105C805.968,105 815.058,115.116 815.129,127.647C815.43,180.456 816.152,307.31 816.152,307.31L820,510L750,510L752,308Z" style="fill:rgb(0,51,145);fill-rule:nonzero;"/>
        </g>
    </g>
</svg>
